<svg width="69" height="69" viewBox="0 0 69 69" fill="none" xmlns="http://www.w3.org/2000/svg">
<g clip-path="url(#clip0_29_84)">
<path d="M34.5 5.74902C18.6156 5.74902 5.75 18.6146 5.75 34.499C5.75 50.3834 18.6156 63.249 34.5 63.249C50.3844 63.249 63.25 50.3834 63.25 34.499C63.25 18.6146 50.3844 5.74902 34.5 5.74902ZM34.5 14.374C39.2581 14.374 43.125 18.2409 43.125 22.999C43.125 27.7715 39.2581 31.624 34.5 31.624C29.7419 31.624 25.875 27.7715 25.875 22.999C25.875 18.2409 29.7419 14.374 34.5 14.374ZM34.5 55.199C27.2981 55.199 20.9731 51.519 17.25 45.9415C17.3219 40.2346 28.7644 37.0865 34.5 37.0865C40.2356 37.0865 51.6637 40.2346 51.75 45.9415C48.0269 51.519 41.7019 55.199 34.5 55.199Z" fill="#2895EA"/>
</g>
<defs>
<clipPath id="clip0_29_84">
<rect width="69" height="69" fill="white" transform="translate(0 -0.000976562)"/>
</clipPath>
</defs>
</svg>
