<svg width="21" height="19" viewBox="0 0 21 19" fill="none" xmlns="http://www.w3.org/2000/svg">
<path d="M15.7493 14.7448C14.6589 14.7458 13.6134 15.1372 12.8408 15.8333C12.8095 15.861 12.7882 15.8966 12.7796 15.9354C12.771 15.9743 12.7756 16.0145 12.7927 16.051C13.1558 16.8275 13.343 17.662 13.343 18.5052C13.343 18.5677 13.343 18.6303 13.336 18.692C13.3344 18.7189 13.3388 18.7458 13.349 18.7711C13.3593 18.7965 13.3751 18.8196 13.3956 18.8392C13.4161 18.8587 13.4408 18.8743 13.4681 18.8849C13.4955 18.8956 13.525 18.901 13.5548 18.901H19.468C19.5841 18.901 19.6953 18.8593 19.7774 18.7851C19.8594 18.7108 19.9055 18.6101 19.9055 18.5052C19.9041 17.5082 19.4658 16.5525 18.6867 15.8475C17.9075 15.1426 16.8512 14.746 15.7493 14.7448Z" fill="white"/>
<path d="M8.40958 12.4529C9.30647 11.9876 9.98569 11.243 10.3206 10.3581C10.6555 9.47308 10.6232 8.50811 10.2298 7.64308C9.83631 6.77805 9.10855 6.07203 8.18219 5.65666C7.25584 5.24129 6.19413 5.14493 5.19504 5.38556C4.19596 5.62618 3.32771 6.18736 2.7522 6.96445C2.17669 7.74154 1.93321 8.68149 2.06716 9.60902C2.20112 10.5365 2.70336 11.3883 3.48023 12.0055C4.25711 12.6227 5.25558 12.9632 6.28945 12.9635C7.03239 12.9574 7.76161 12.7818 8.40958 12.4529ZM3.9112 7.86124C4.61724 8.35307 5.43875 8.69153 6.31233 8.85048C7.1859 9.00944 8.08816 8.98463 8.94945 8.77799C8.9547 8.83736 8.96958 8.89357 8.96958 8.95374C8.95689 9.58916 8.66898 10.1947 8.16783 10.64C7.66667 11.0853 6.99232 11.3348 6.28989 11.3348C5.58747 11.3348 4.91311 11.0853 4.41196 10.64C3.9108 10.1947 3.6229 9.58916 3.6102 8.95374C3.61323 8.57387 3.71642 8.20014 3.9112 7.86361V7.86124Z" fill="white"/>
<path d="M12.0312 18.5052C12.0312 17.088 11.409 15.7288 10.3013 14.7266C9.19371 13.7245 7.69143 13.1615 6.125 13.1615C4.55857 13.1615 3.05629 13.7245 1.94865 14.7266C0.841014 15.7288 0.21875 17.088 0.21875 18.5052C0.21875 18.6102 0.264844 18.7109 0.346891 18.7851C0.428938 18.8594 0.540218 18.9011 0.65625 18.9011H11.5938C11.7098 18.9011 11.8211 18.8594 11.9031 18.7851C11.9852 18.7109 12.0312 18.6102 12.0312 18.5052ZM5.46875 15.3299C5.46875 15.1724 5.53789 15.0214 5.66096 14.91C5.78403 14.7987 5.95095 14.7361 6.125 14.7361C6.29905 14.7361 6.46597 14.7987 6.58904 14.91C6.71211 15.0214 6.78125 15.1724 6.78125 15.3299V16.481C6.78125 16.6384 6.71211 16.7895 6.58904 16.9008C6.46597 17.0122 6.29905 17.0747 6.125 17.0747C5.95095 17.0747 5.78403 17.0122 5.66096 16.9008C5.53789 16.7895 5.46875 16.6384 5.46875 16.481V15.3299Z" fill="white"/>
<path d="M15.7497 14.4211C17.3265 14.4211 18.6048 13.2645 18.6048 11.8378C18.6048 10.4112 17.3265 9.25464 15.7497 9.25464C14.1728 9.25464 12.8945 10.4112 12.8945 11.8378C12.8945 13.2645 14.1728 14.4211 15.7497 14.4211Z" fill="white"/>
<path d="M20.5254 7.45591L18.6109 5.72375C18.885 5.20304 19.0287 4.63403 19.0318 4.05729C19.0425 3.13979 18.7044 2.24682 18.0741 1.52802C17.4438 0.809211 16.5596 0.308248 15.5697 0.109077C14.5797 -0.0900934 13.5442 0.024631 12.6366 0.434026C11.729 0.84342 11.0045 1.52261 10.5846 2.35777C10.1646 3.19294 10.0746 4.13333 10.3297 5.02137C10.5849 5.9094 11.1696 6.69111 11.986 7.23551C12.8023 7.7799 13.8006 8.0539 14.8137 8.01159C15.8268 7.96927 16.7929 7.61321 17.5504 7.00308L19.2881 8.57533C19.4532 8.71954 19.6742 8.79933 19.9036 8.79753C20.133 8.79573 20.3525 8.71247 20.5147 8.56569C20.677 8.41891 20.769 8.22034 20.771 8.01277C20.773 7.8052 20.6848 7.60522 20.5254 7.45591ZM14.6568 6.43229C14.1376 6.43229 13.6301 6.293 13.1984 6.03203C12.7667 5.77106 12.4302 5.40014 12.2316 4.96616C12.0329 4.53219 11.9809 4.05465 12.0822 3.59395C12.1835 3.13324 12.4335 2.71006 12.8006 2.37791C13.1677 2.04576 13.6354 1.81956 14.1446 1.72792C14.6538 1.63628 15.1816 1.68332 15.6613 1.86307C16.141 2.04283 16.5509 2.34724 16.8394 2.73781C17.1278 3.12838 17.2818 3.58756 17.2818 4.05729C17.2818 4.68718 17.0052 5.29127 16.5129 5.73667C16.0206 6.18207 15.3529 6.43229 14.6568 6.43229Z" fill="white"/>
</svg>
