<svg width="21" height="21" viewBox="0 0 21 21" fill="none" xmlns="http://www.w3.org/2000/svg">
<path d="M17.9 14H20V0H0V14H8.1C8.26416 14.8005 8.622 15.5485 9.1422 16.1786C9.6624 16.8087 10.3291 17.3018 11.084 17.6146C11.8389 17.9274 12.6589 18.0504 13.4723 17.9729C14.2857 17.8954 15.0678 17.6197 15.75 17.17L19.29 20.71L20.7 19.3L17.16 15.76C17.5174 15.2263 17.7687 14.6288 17.9 14ZM2 12V2H18V12H17.9C17.7517 11.2749 17.4443 10.5918 17 10V8H13C12.0497 8.00331 11.1201 8.27735 10.32 8.79C10.0666 8.405 9.74861 8.06669 9.38 7.79C9.77457 7.27595 9.99208 6.64797 10 6C10 5.20435 9.68393 4.44129 9.12132 3.87868C8.55871 3.31607 7.79565 3 7 3C6.20435 3 5.44129 3.31607 4.87868 3.87868C4.31607 4.44129 4 5.20435 4 6C4.00576 6.6514 4.22339 7.28323 4.62 7.8C4.11953 8.17049 3.71247 8.6527 3.43123 9.20825C3.14998 9.76379 3.00232 10.3773 3 11V12H2ZM6 6C6 5.80222 6.05865 5.60888 6.16853 5.44443C6.27841 5.27998 6.43459 5.15181 6.61732 5.07612C6.80004 5.00043 7.00111 4.98063 7.19509 5.01921C7.38907 5.0578 7.56725 5.15304 7.70711 5.29289C7.84696 5.43275 7.9422 5.61093 7.98079 5.80491C8.01937 5.99889 7.99957 6.19996 7.92388 6.38268C7.84819 6.56541 7.72002 6.72159 7.55557 6.83147C7.39112 6.94135 7.19778 7 7 7C6.73478 7 6.48043 6.89464 6.29289 6.70711C6.10536 6.51957 6 6.26522 6 6ZM5 11C5.00316 10.5402 5.16466 10.0955 5.45731 9.74083C5.74996 9.38616 6.15589 9.14317 6.60674 9.05276C7.05759 8.96236 7.52582 9.03007 7.93259 9.24449C8.33935 9.45891 8.65981 9.80695 8.84 10.23C8.4814 10.7667 8.2301 11.3678 8.1 12H5V11ZM13 16C12.4067 16 11.8266 15.8241 11.3333 15.4944C10.8399 15.1648 10.4554 14.6962 10.2284 14.1481C10.0013 13.5999 9.94189 12.9967 10.0576 12.4147C10.1734 11.8328 10.4591 11.2982 10.8787 10.8787C11.2982 10.4591 11.8328 10.1734 12.4147 10.0576C12.9967 9.94189 13.5999 10.0013 14.1481 10.2284C14.6962 10.4554 15.1648 10.8399 15.4944 11.3333C15.8241 11.8266 16 12.4067 16 13C16 13.7956 15.6839 14.5587 15.1213 15.1213C14.5587 15.6839 13.7956 16 13 16Z" fill="white"/>
<path d="M17 4H12V6H17V4Z" fill="white"/>
</svg>
