<svg width="50" height="32" viewBox="0 0 50 32" fill="none" xmlns="http://www.w3.org/2000/svg">
<path fill-rule="evenodd" clip-rule="evenodd" d="M12.4822 4.70242L0 16C2.49668 18.2598 5.34874 20.1642 8.4583 21.6542C9.3178 23.7177 10.665 25.6529 12.5 27.3137C19.4036 33.5621 30.5965 33.5621 37.5 27.3137C39.335 25.6529 40.6822 23.7177 41.5417 21.6541C44.6512 20.1642 47.5034 18.2598 50 16L37.5279 4.71161C37.5186 4.70317 37.5094 4.69472 37.5 4.68629C30.5965 -1.5621 19.4036 -1.5621 12.5 4.68629C12.4941 4.69167 12.4881 4.69704 12.4822 4.70242ZM36.3056 23.6925C32.6681 24.8036 28.8496 25.3726 25 25.3726C21.1504 25.3726 17.332 24.8036 13.6945 23.6925C14.0886 24.1657 14.5238 24.6199 15 25.051C20.5229 30.0497 29.4771 30.0497 35 25.051C35.4762 24.6199 35.9115 24.1657 36.3056 23.6925ZM15.2564 6.72275C16.1943 7.28356 17.1915 7.76346 18.235 8.1547C20.3798 8.95877 22.6785 9.37262 25 9.37262C27.3215 9.37262 29.6203 8.95877 31.765 8.1547C32.8085 7.76346 33.8058 7.28355 34.7438 6.72272C29.2897 2.02575 20.7103 2.02576 15.2564 6.72275Z" fill="#B5C0D0"/>
</svg>
