<svg width="61" height="55" viewBox="0 0 61 55" fill="none" xmlns="http://www.w3.org/2000/svg">
<path d="M11.1993 33.172L19.846 25.4015L27.0338 31.8632L35.0579 24.6523L30.5007 20.5569H43.209V31.9774L38.6518 27.882L27.0338 38.3226L19.846 31.8632L13.5554 37.514C16.4107 41.3761 20.7931 44.1183 25.8144 45.1848C30.8358 46.2513 36.1205 45.5625 40.5977 43.2578C45.075 40.9532 48.4098 37.2051 49.9265 32.7732C51.4431 28.3412 51.0282 23.5568 48.7657 19.3896C46.5033 15.2223 42.5625 11.9838 37.742 10.3304C32.9215 8.67701 27.5818 8.73231 22.805 10.4851C18.0282 12.2379 14.1715 15.5571 12.0165 19.7702C9.86148 23.9832 9.56934 28.7749 11.1993 33.1742V33.172ZM7.29017 36.7306L7.26476 36.7077L7.27492 36.6986C5.82599 33.775 5.07944 30.6096 5.08401 27.4092C5.08401 14.7941 16.463 4.56824 30.5007 4.56824C44.5383 4.56824 55.9173 14.7941 55.9173 27.4092C55.9173 40.0242 44.5383 50.2501 30.5007 50.2501C20.1561 50.2501 11.2603 44.6998 7.29017 36.7306Z" fill="#D9A200"/>
</svg>
