<svg width="20" height="20" viewBox="0 0 20 20" fill="none" xmlns="http://www.w3.org/2000/svg">
<mask id="mask0_123_35" style="mask-type:luminance" maskUnits="userSpaceOnUse" x="0" y="0" width="20" height="20">
<path d="M19.9421 0.0594482H0.0175781V19.964H19.9421V0.0594482Z" fill="white"/>
</mask>
<g mask="url(#mask0_123_35)">
<path d="M4.5967 18.1703C4.4795 18.6344 4.41402 18.7655 4.2962 19.195C4.26327 19.3396 4.1916 19.4698 4.09047 19.569C3.98935 19.6682 3.86343 19.7318 3.72901 19.7515C2.96328 19.8752 2.19669 20.022 1.41791 19.9008C0.703436 19.7893 0.247132 19.2971 0.211423 18.5055C0.150634 17.1574 0.129222 15.8072 0.0975776 14.4577C0.0882792 14.0618 0.0835232 13.6643 0.106105 13.2696C0.152048 12.4679 0.494422 12.0408 1.22343 11.9863C2.0222 11.9262 2.82615 11.9409 3.6279 11.9398C3.94278 11.9394 4.13757 12.1702 4.27641 12.455C4.34494 12.5955 4.39362 12.7475 4.44784 12.884C4.94675 12.8067 5.42939 12.7093 5.91602 12.6616C6.80621 12.5744 7.68289 12.6787 8.51193 13.0576C9.47706 13.4991 10.4727 13.5932 11.5003 13.4854C11.753 13.4604 12.0075 13.4694 12.2582 13.5123C13.0806 13.6496 13.476 14.32 13.2705 15.199C13.2541 15.269 13.2295 15.3362 13.185 15.4842C13.4737 15.4612 13.7292 15.4505 13.9825 15.4191C15.0682 15.2842 16.0807 14.8594 17.1001 14.4617C17.5529 14.2851 18.0011 14.0889 18.4634 13.9499C18.7347 13.8739 19.0153 13.8468 19.2944 13.8696C19.7889 13.9039 20.0194 14.2986 19.8929 14.8205C19.7891 15.2496 19.5504 15.5769 19.2582 15.8672C18.4113 16.7081 17.4194 17.2694 16.35 17.6795C14.8445 18.2566 13.3068 18.6892 11.7204 18.891C9.61652 19.1724 7.45265 19.1752 5.44807 18.4196C5.16202 18.3109 4.86423 18.2663 4.5967 18.1703ZM4.61146 17.3383C5.0959 17.4786 5.54479 17.6109 5.99446 17.7382C7.40043 18.1356 8.8297 18.3615 10.28 18.2541C12.4443 18.0941 14.5182 17.4809 16.5293 16.6055C17.3038 16.2752 18.0193 15.7978 18.6434 15.1954C18.7792 15.0476 18.9069 14.8911 19.0259 14.7267L18.9591 14.6164C18.6712 14.7101 18.3799 14.7928 18.0961 14.8995C17.1111 15.2697 16.1359 15.6731 15.1432 16.0158C14.3595 16.2863 13.5514 16.3973 12.7288 16.2016C12.612 16.1808 12.4923 16.2013 12.3869 16.2601C11.3419 16.8428 10.2135 16.9477 9.07191 16.9545C8.80579 16.9408 8.54256 16.8877 8.28939 16.7966C8.24931 16.7872 8.2115 16.769 8.17813 16.7429C8.14476 16.7167 8.11656 16.6835 8.09538 16.6451C8.07413 16.6067 8.06029 16.5639 8.05468 16.5194C8.04913 16.4749 8.05185 16.4294 8.06279 16.3862C8.10265 16.2384 8.18914 16.1111 8.30682 16.0272C8.45215 15.9526 8.61029 15.9126 8.77078 15.9097C9.21045 15.8714 9.65137 15.8497 10.0918 15.8229C10.7091 15.7848 11.3203 15.6965 11.8853 15.4102C12.1143 15.2957 12.3191 15.1297 12.4863 14.923C12.6911 14.6612 12.582 14.4038 12.2675 14.3688C12.0143 14.3492 11.7601 14.3522 11.5074 14.3782C10.4682 14.4515 9.45079 14.373 8.48145 13.9059C8.29752 13.8186 8.10913 13.743 7.91715 13.6798C6.95407 13.3493 5.92491 13.329 4.95166 13.6213C4.57318 13.7328 4.57662 13.7509 4.5967 14.1679C4.62858 14.8418 4.6707 15.5157 4.68195 16.1903C4.68812 16.5541 4.63913 16.919 4.61123 17.3384L4.61146 17.3383ZM3.49803 12.7679C2.85732 12.7679 2.24537 12.7614 1.6334 12.7699C1.08529 12.7774 0.948628 12.9307 0.936673 13.5315C0.906045 15.0709 0.860335 16.6102 0.858538 18.1496C0.857835 18.8016 1.15272 19.0141 1.57418 18.9795C2.13301 18.9336 2.69152 18.8781 3.24801 18.8046C3.54156 18.7659 3.59328 18.6659 3.58806 18.3275C3.57083 18.0496 3.57012 17.7706 3.58594 17.4926C3.73439 16.0698 3.62952 14.6499 3.56514 13.2294C3.55 13.0744 3.52753 12.9203 3.49781 12.7679H3.49803Z" fill="white"/>
<path d="M11.3827 5.34445C12.2372 5.98638 12.5536 6.93483 12.649 8.01587C12.8159 9.90983 11.7924 11.0898 10.592 11.5936C9.60303 12.009 8.58868 12.2199 7.5363 11.8807C6.31591 11.4873 5.5962 10.4124 5.5512 9.01936C5.49493 7.27881 6.4453 5.69285 8.00329 4.99379C8.95185 4.56866 10.7945 4.90269 11.3827 5.34445ZM8.4821 11.0846C8.99873 11.1522 9.93893 10.9086 10.4042 10.6839C11.2627 10.2693 11.8915 9.50625 11.7454 8.11281C11.6235 6.95061 11.0863 6.06529 10.0615 5.83227C9.5267 5.71069 8.48203 5.65613 7.95055 5.90374C6.79011 6.44425 6.3395 7.72261 6.39998 9.11966C6.45921 10.4857 7.71273 10.984 8.4821 11.0848V11.0846Z" fill="white"/>
<path d="M2.20065 14.6673C1.85287 14.6719 1.60861 14.4265 1.59618 14.0603C1.58204 13.6403 1.88356 13.2723 2.24361 13.2698C2.66163 13.2672 2.98466 13.5358 2.98738 13.8876C2.99028 14.2673 2.59163 14.662 2.20065 14.6673Z" fill="white"/>
<path d="M9.28116 7.15767V8.19983C9.41955 8.25705 9.54894 8.30433 9.67371 8.36335C10.1646 8.59501 10.2853 9.10162 9.96352 9.5674C9.83069 9.75924 9.7263 9.83689 9.33539 10.034C9.29851 10.2399 9.26139 10.4426 9.226 10.6459C9.20639 10.7591 9.15716 10.8468 9.04457 10.8496C8.92581 10.8527 8.88408 10.7467 8.8629 10.6441C8.82321 10.4519 8.79609 10.2565 8.76008 10.0401C8.61639 9.99792 8.45988 9.95331 8.30415 9.90578C8.22876 9.8863 8.15491 9.86005 8.08343 9.82728C8.02139 9.8036 7.9695 9.75564 7.9377 9.6925C7.9059 9.62944 7.89637 9.55565 7.91099 9.4853C7.9363 9.34888 8.04295 9.26265 8.20727 9.27441C8.38628 9.28728 8.56412 9.32065 8.73796 9.34451C8.81056 9.12469 8.81891 8.99386 8.78719 8.61964C8.66608 8.56979 8.53505 8.52578 8.41214 8.46331C7.91332 8.21073 7.80341 7.66362 8.15687 7.20101C8.30275 6.99956 8.49496 6.84452 8.71366 6.75195C8.77172 6.7348 8.82251 6.69613 8.85744 6.6425C8.89237 6.58885 8.90932 6.52356 8.90533 6.45775C8.90658 6.35394 8.92713 6.2515 8.96581 6.15677C8.98245 6.12625 9.00558 6.1006 9.03316 6.08197C9.06075 6.06335 9.092 6.05231 9.12427 6.0498C9.1556 6.05953 9.18427 6.07729 9.20803 6.10165C9.23178 6.126 9.24999 6.15621 9.26093 6.1898C9.28257 6.31097 9.2943 6.43401 9.29609 6.55745C9.41493 6.58715 9.5323 6.62356 9.6477 6.6665C9.83194 6.74612 9.91914 6.90305 9.89671 7.08184C9.8768 7.24014 9.79841 7.29367 9.66395 7.22863C9.54636 7.17201 9.43674 7.08775 9.28116 7.15767ZM8.82641 7.36429C8.57388 7.52876 8.4448 7.70367 8.49145 7.834C8.54716 7.98973 8.67647 8.02893 8.82641 8.05038V7.36429ZM9.2982 9.31739C9.46595 9.24936 9.61972 9.16803 9.61464 8.98141C9.61034 8.82493 9.4533 8.79267 9.32555 8.77156C9.3182 8.77035 9.30991 8.77757 9.27749 8.79086C9.27749 8.89983 9.2757 9.01909 9.27836 9.13825C9.27952 9.19042 9.28952 9.24241 9.2982 9.31739Z" fill="white"/>
<path d="M15.6699 2.40885V3.4511C15.8082 3.50832 15.9375 3.55558 16.0623 3.6141C16.5532 3.84575 16.674 4.35247 16.3522 4.81825C16.2193 5.01001 16.1149 5.08764 15.7241 5.28481C15.6872 5.49072 15.65 5.60764 15.6147 5.81081C15.595 5.92406 15.5457 6.01176 15.4332 6.01468C15.3144 6.01768 15.2727 5.91172 15.2516 5.8092C15.2118 5.61694 15.1848 5.50737 15.1487 5.29091C15.005 5.2487 14.8486 5.20415 14.6928 5.15662C14.6174 5.13708 14.5436 5.11081 14.4721 5.07805C14.41 5.05434 14.3581 5.00634 14.3263 4.94324C14.2946 4.88014 14.285 4.80636 14.2997 4.73606C14.3249 4.59972 14.4317 4.5135 14.5959 4.52525C14.775 4.53804 14.9528 4.57149 15.1267 4.59534C15.1992 4.37554 15.2075 4.24461 15.1759 3.87046C15.0548 3.82052 14.9237 3.7766 14.8005 3.71414C14.3016 3.46155 14.1918 2.91444 14.5452 2.45183C14.6911 2.25038 14.8834 2.09534 15.1021 2.00277C15.16 1.98561 15.2109 1.94691 15.2457 1.89328C15.2806 1.83964 15.2977 1.77438 15.2937 1.70857C15.2948 1.60476 15.3154 1.50234 15.3541 1.40762C15.3707 1.3771 15.3938 1.35141 15.4215 1.33278C15.4491 1.31414 15.4803 1.30308 15.5127 1.30054C15.544 1.31028 15.5725 1.32808 15.5963 1.35244C15.6202 1.37681 15.6382 1.40706 15.6492 1.44065C15.6707 1.56181 15.6827 1.68483 15.6844 1.80827C15.8034 1.83792 15.9206 1.87432 16.0361 1.91732C16.2203 1.99686 16.3075 2.15379 16.285 2.33259C16.2652 2.49096 16.1867 2.5444 16.0523 2.47937C15.935 2.4231 15.8254 2.33893 15.6699 2.40885ZM15.2152 2.61545C14.9625 2.78 14.8335 2.95494 14.88 3.08527C14.9357 3.2409 15.0652 3.28019 15.2152 3.30164V2.61545ZM15.6868 4.56868C15.8546 4.50064 16.0084 4.41923 16.0032 4.23261C15.9991 4.07613 15.8419 4.04385 15.7142 4.02283C15.7068 4.02163 15.6985 4.02883 15.6661 4.04213C15.6661 4.1511 15.6643 4.27036 15.6669 4.38945C15.6681 4.4417 15.6782 4.4937 15.6868 4.56868Z" fill="white"/>
<path d="M17.6873 0.608607C18.5419 1.25053 18.8583 2.19902 18.9537 3.28004C19.1206 5.17399 18.097 6.35394 16.8966 6.85773C15.9077 7.27306 14.8934 7.48403 13.841 7.14479C12.6206 6.75142 11.901 5.67649 11.8559 4.28342C11.7996 2.54288 12.75 0.95703 14.3079 0.257883C15.2565 -0.166978 17.0991 0.167102 17.6873 0.608607ZM14.7869 6.34878C15.3035 6.41648 16.2435 6.17272 16.709 5.94811C17.5675 5.53355 18.1962 4.7704 18.0501 3.37699C17.9282 2.21488 17.391 1.32946 16.3663 1.09653C15.8314 0.974953 14.7869 0.920387 14.2553 1.16799C13.0948 1.7085 12.6443 2.98688 12.7047 4.38381C12.7638 5.75002 14.0175 6.24832 14.7869 6.34913V6.34878Z" fill="white"/>
</g>
</svg>
