<svg width="60" height="58" viewBox="0 0 60 58" fill="none" xmlns="http://www.w3.org/2000/svg">
<g clip-path="url(#clip0_29_90)">
<path d="M30 4.83203C16.1875 4.83203 5 15.6466 5 28.9987C5 42.3508 16.1875 53.1654 30 53.1654C43.8125 53.1654 55 42.3508 55 28.9987C55 15.6466 43.8125 4.83203 30 4.83203ZM33.5375 43.7162V48.332H26.875V43.6679C22.6125 42.7858 18.9625 40.1395 18.7 35.4391H23.5875C23.8375 37.9766 25.6375 39.9462 30.2125 39.9462C35.125 39.9462 36.2125 37.5779 36.2125 36.1037C36.2125 34.1099 35.1 32.2129 29.55 30.932C23.35 29.4941 19.1 27.017 19.1 22.0629C19.1 17.9183 22.5625 15.2116 26.875 14.3054V9.66536H33.5375V14.3658C38.1875 15.4654 40.5125 18.8608 40.675 22.5462H35.75C35.6125 19.8637 34.15 18.0391 30.2 18.0391C26.45 18.0391 24.2 19.6704 24.2 22.0145C24.2 24.0566 25.825 25.3616 30.8625 26.6304C35.9125 27.8991 41.3125 29.9774 41.3125 36.0795C41.3125 40.4899 37.8625 42.9187 33.5375 43.7162Z" fill="#F39203"/>
</g>
<defs>
<clipPath id="clip0_29_90">
<rect width="60" height="58" fill="white" transform="translate(0 -0.000976562)"/>
</clipPath>
</defs>
</svg>
