<svg width="67" height="45" viewBox="0 0 67 45" fill="none" xmlns="http://www.w3.org/2000/svg">
<path d="M3.20157 9.03987C2.34722 9.46297 1.18774 9.25142 0.699534 8.45809C0.211333 7.66476 0.455434 6.71277 1.37081 6.28966C29.6255 -8.2018 37.9859 10.6794 64.4099 5.655C65.3863 5.49633 66.3627 6.02522 66.6068 6.87144C66.7898 7.71765 66.1796 8.56387 65.2032 8.77542C38.3521 13.8527 29.3204 -4.39382 3.20157 9.03987ZM40.427 24.3247C40.427 20.9927 37.3147 18.2954 33.4701 18.2954C29.6255 18.2954 26.5132 20.9927 26.5132 24.3247C26.5132 27.6566 29.6255 30.3539 33.4701 30.3539C37.3147 30.3539 40.427 27.6566 40.427 24.3247ZM44.0885 24.3247C44.0885 29.402 39.3285 33.5273 33.4701 33.5273C27.6117 33.5273 22.8517 29.402 22.8517 24.3247C22.8517 19.2474 27.6117 15.122 33.4701 15.122C39.3285 15.122 44.0885 19.2474 44.0885 24.3247ZM4.11695 14.4874V39.5037C29.5645 27.8153 38.7182 44.4223 62.9453 40.5085V15.0692C38.108 18.8242 28.8932 2.21724 4.11695 14.4874ZM1.92004 11.8958C29.5645 -1.96095 37.9249 16.2327 63.6776 11.6843C65.9965 11.2612 66.6068 11.8958 66.6068 13.8527V40.9317C66.6068 42.8356 66.4847 43.1001 64.1658 43.5232C38.4741 47.9658 29.4424 30.7771 4.42207 42.9943C3.38464 43.4703 2.34722 44.2107 1.24876 43.4703C0.455434 42.9414 0.516459 42.2539 0.516459 41.4605V14.4874C0.516459 13.8527 0.516459 13.4296 0.577484 13.1123C0.638509 12.6363 0.943635 12.3718 1.92004 11.8958ZM8.75486 15.7567C11.8672 14.0114 15.1015 13.1123 18.763 12.795C21.8753 12.5305 22.1804 15.7038 19.1902 15.9683C16.1999 16.1798 13.5148 16.8674 11.0128 18.2425C9.30409 19.1945 8.20564 18.8242 7.77846 18.0838C7.22923 17.1318 7.77846 16.2856 8.75486 15.7567Z" fill="#009142"/>
</svg>
