<svg width="18" height="17" viewBox="0 0 18 17" fill="none" xmlns="http://www.w3.org/2000/svg">
<path fill-rule="evenodd" clip-rule="evenodd" d="M0 11.1151V15.0377C0 15.5584 0.218853 16.0574 0.608773 16.425C0.997999 16.7933 1.52643 17 2.07772 17H2.0798V15.6938H1.38515C1.00285 15.6938 0.692574 15.4007 0.692574 15.0397C0.692574 14.6786 1.00285 14.3856 1.38515 14.3856H3.46287C3.84517 14.3856 4.15544 14.0925 4.15544 13.7315C4.15544 13.3704 3.84517 13.0774 3.46287 13.0774H2.07772C0.93082 13.0774 0 12.1983 0 11.1151ZM0 11.1151C0 10.0319 0.93082 9.15279 2.07772 9.15279H2.0798V8.49869C2.0798 8.13763 2.39077 7.84459 2.77237 7.84459C3.15467 7.84459 3.46495 8.13763 3.46495 8.49869V9.15279H4.15544C4.53775 9.15279 4.84802 9.44583 4.84802 9.80689C4.84802 10.1679 4.53775 10.461 4.15544 10.461H2.07772C1.69542 10.461 1.38515 10.754 1.38515 11.1151C1.38515 11.4761 1.69542 11.7692 2.07772 11.7692H3.46287C4.60977 11.7692 5.54059 12.6483 5.54059 13.7315C5.54059 14.814 4.61116 15.6925 3.46495 15.6938V17H15.9223C17.0699 17 18 16.1215 18 15.0377V5.18765L0 5.22232V11.1151ZM14.5371 12.7503C14.0593 12.7503 13.6714 13.1166 13.6714 13.5679C13.6714 14.0193 14.0593 14.3856 14.5371 14.3856C15.015 14.3856 15.4028 14.0193 15.4028 13.5679C15.4028 13.1166 15.015 12.7503 14.5371 12.7503ZM11.7668 12.7503C11.289 12.7503 10.9011 13.1166 10.9011 13.5679C10.9011 14.0193 11.289 14.3856 11.7668 14.3856C12.2447 14.3856 12.6326 14.0193 12.6326 13.5679C12.6326 13.1166 12.2447 12.7503 11.7668 12.7503ZM8.99654 12.7503C8.51866 12.7503 8.13082 13.1166 8.13082 13.5679C8.13082 14.0193 8.51866 14.3856 8.99654 14.3856C9.47441 14.3856 9.86226 14.0193 9.86226 13.5679C9.86226 13.1166 9.47441 12.7503 8.99654 12.7503ZM14.5371 9.64336C14.0593 9.64336 13.6714 10.0097 13.6714 10.461C13.6714 10.9123 14.0593 11.2786 14.5371 11.2786C15.015 11.2786 15.4028 10.9123 15.4028 10.461C15.4028 10.0097 15.015 9.64336 14.5371 9.64336ZM11.7668 9.64336C11.289 9.64336 10.9011 10.0097 10.9011 10.461C10.9011 10.9123 11.289 11.2786 11.7668 11.2786C12.2447 11.2786 12.6326 10.9123 12.6326 10.461C12.6326 10.0097 12.2447 9.64336 11.7668 9.64336ZM8.99654 9.64336C8.51866 9.64336 8.13082 10.0097 8.13082 10.461C8.13082 10.9123 8.51866 11.2786 8.99654 11.2786C9.47441 11.2786 9.86226 10.9123 9.86226 10.461C9.86226 10.0097 9.47441 9.64336 8.99654 9.64336ZM14.5371 6.5364C14.0593 6.5364 13.6714 6.90269 13.6714 7.35402C13.6714 7.80535 14.0593 8.17164 14.5371 8.17164C15.015 8.17164 15.4028 7.80535 15.4028 7.35402C15.4028 6.90269 15.015 6.5364 14.5371 6.5364ZM11.7668 6.5364C11.289 6.5364 10.9011 6.90269 10.9011 7.35402C10.9011 7.80535 11.289 8.17164 11.7668 8.17164C12.2447 8.17164 12.6326 7.80535 12.6326 7.35402C12.6326 6.90269 12.2447 6.5364 11.7668 6.5364ZM8.99654 6.5364C8.51866 6.5364 8.13082 6.90269 8.13082 7.35402C8.13082 7.80535 8.51866 8.17164 8.99654 8.17164C9.47441 8.17164 9.86226 7.80535 9.86226 7.35402C9.86226 6.90269 9.47441 6.5364 8.99654 6.5364ZM6.22624 6.5364C5.74836 6.5364 5.36052 6.90269 5.36052 7.35402C5.36052 7.80535 5.74836 8.17164 6.22624 8.17164C6.70412 8.17164 7.09196 7.80535 7.09196 7.35402C7.09196 6.90269 6.70412 6.5364 6.22624 6.5364ZM2.78346 0H2.07772C0.930127 0 0 0.878453 0 1.96229V3.91412L18 3.87945V1.96229C18 0.878453 17.0699 0 15.9223 0H15.2297V1.95771C15.2297 2.31878 14.9194 2.61181 14.5371 2.61181C14.1548 2.61181 13.8446 2.31878 13.8446 1.95771V0H12.4594V1.95771C12.4594 2.31878 12.1491 2.61181 11.7668 2.61181C11.3845 2.61181 11.0743 2.31878 11.0743 1.95771V0H9.69604V1.95771C9.69604 2.31878 9.38576 2.61181 9.00346 2.61181C8.62116 2.61181 8.31089 2.31878 8.31089 1.95771V0H6.93267V1.95575C6.93267 2.31681 6.62239 2.60985 6.24009 2.60985C5.85779 2.60985 5.54752 2.31681 5.54752 1.95575V0H4.1686V1.95575C4.1686 2.31681 3.85833 2.60985 3.47603 2.60985C3.09373 2.60985 2.78346 2.31681 2.78346 1.95575V0Z" fill="white"/>
</svg>
