<svg width="52" height="54" viewBox="0 0 52 54" fill="none" xmlns="http://www.w3.org/2000/svg">
<path d="M12.5063 24.68C19.0972 24.68 24.4403 19.1999 24.4403 12.44C24.4403 5.67999 19.0972 0.199951 12.5063 0.199951C5.9153 0.199951 0.572266 5.67999 0.572266 12.44C0.572266 19.1999 5.9153 24.68 12.5063 24.68Z" fill="#CF182E"/>
<path d="M29.3538 18.1999C31.9278 18.1999 34.0338 15.6399 34.0338 12.4399C34.0338 9.23993 31.9278 6.67993 29.3538 6.67993C26.7798 6.67993 24.6738 9.23993 24.6738 12.4399C24.6738 15.6399 26.8578 18.1999 29.3538 18.1999ZM29.3538 8.27993C30.9918 8.27993 32.3958 10.1199 32.3958 12.3599C32.3958 14.5999 31.0698 16.4399 29.3538 16.4399C27.7158 16.4399 26.3118 14.5999 26.3118 12.3599C26.3118 10.1199 27.7158 8.27993 29.3538 8.27993Z" fill="#CF182E"/>
<path d="M29.3542 39.3199C28.8862 39.3199 28.5742 39.7199 28.5742 40.1199V52.9199C28.5742 53.3999 28.9642 53.7199 29.3542 53.7199C29.8222 53.7199 30.1342 53.3199 30.1342 52.9199V40.1199C30.2122 39.7199 29.8222 39.3199 29.3542 39.3199Z" fill="#CF182E"/>
<path d="M33.3331 19.5599H32.3191C31.8511 19.5599 31.5391 19.9599 31.5391 20.3599C31.5391 20.7599 31.9291 21.1599 32.3191 21.1599H33.3331C36.0631 21.1599 38.2471 23.3999 38.2471 26.1999V33.6399C38.2471 34.7599 37.6231 35.8799 36.6091 36.4399L36.0631 36.6799V27.2399C36.0631 26.7599 35.6731 26.4399 35.2831 26.4399C34.8931 26.4399 34.5031 26.8399 34.5031 27.2399V52.9199C34.5031 53.3999 34.8931 53.7199 35.2831 53.7199C35.6731 53.7199 36.0631 53.3199 36.0631 52.9199V38.5999L37.3891 37.9599C38.9491 37.0799 39.8851 35.4799 39.8851 33.7199V26.2799C39.8851 22.5199 36.9211 19.5599 33.3331 19.5599Z" fill="#CF182E"/>
<path d="M40.9769 18.1999C43.5509 18.1999 45.6569 15.6399 45.6569 12.4399C45.6569 9.23993 43.5509 6.67993 40.9769 6.67993C38.4029 6.67993 36.2969 9.23993 36.2969 12.4399C36.2969 15.6399 38.4029 18.1999 40.9769 18.1999ZM40.9769 8.27993C42.6149 8.27993 44.0189 10.1199 44.0189 12.3599C44.0189 14.5999 42.6929 16.4399 40.9769 16.4399C39.2609 16.4399 37.9349 14.5999 37.9349 12.3599C37.9349 10.1199 39.2609 8.27993 40.9769 8.27993Z" fill="#CF182E"/>
<path d="M40.9753 39.3199C40.5073 39.3199 40.1953 39.7199 40.1953 40.1199V52.9199C40.1953 53.3999 40.5853 53.7199 40.9753 53.7199C41.3653 53.7199 41.7553 53.3199 41.7553 52.9199V40.1199C41.7553 39.7199 41.4433 39.3199 40.9753 39.3199Z" fill="#CF182E"/>
<path d="M44.876 19.5599H43.862C43.394 19.5599 43.082 19.9599 43.082 20.3599C43.082 20.7599 43.472 21.1599 43.862 21.1599H44.876C47.606 21.1599 49.79 23.3999 49.79 26.1999V33.6399C49.79 34.8399 49.166 35.9599 48.152 36.4399L47.606 36.6799V27.2399C47.606 26.7599 47.216 26.4399 46.826 26.4399C46.358 26.4399 46.046 26.8399 46.046 27.2399V52.9199C46.046 53.3999 46.436 53.7199 46.826 53.7199C47.294 53.7199 47.606 53.3199 47.606 52.9199V38.6799L48.854 38.0399C50.414 37.2399 51.428 35.5599 51.428 33.7199V26.2799C51.428 22.5199 48.464 19.5599 44.876 19.5599Z" fill="#CF182E"/>
<path d="M18.8245 18.1999C21.3985 18.1999 23.5045 15.6399 23.5045 12.4399C23.5045 9.23993 21.3985 6.67993 18.8245 6.67993C16.2505 6.67993 14.1445 9.23993 14.1445 12.4399C14.1445 15.6399 16.2505 18.1999 18.8245 18.1999ZM18.8245 8.27993C20.4625 8.27993 21.8665 10.1199 21.8665 12.3599C21.8665 14.5999 20.5405 16.4399 18.8245 16.4399C17.1865 16.4399 15.7825 14.5999 15.7825 12.3599C15.7825 10.1199 17.1865 8.27993 18.8245 8.27993Z" fill="#CF182E"/>
<path d="M18.8249 37.3999C18.3569 37.3999 18.0449 37.7999 18.0449 38.1999V52.9199C18.0449 53.3999 18.4349 53.7199 18.8249 53.7199C19.2149 53.7199 19.6049 53.3199 19.6049 52.9199V38.1999C19.6049 37.7199 19.2929 37.3999 18.8249 37.3999Z" fill="#CF182E"/>
<path d="M29.1976 26.2799C29.1976 22.5999 26.2336 19.5599 22.6456 19.5599H21.6316C21.1636 19.5599 20.8516 19.9599 20.8516 20.3599C20.8516 20.7599 21.2416 21.1599 21.6316 21.1599H22.6456C25.3756 21.1599 27.5596 23.3999 27.5596 26.1999V33.6399C27.5596 34.8399 26.9356 35.9599 25.9216 36.4399L25.3756 36.6799V27.2399C25.3756 26.7599 24.9856 26.4399 24.5956 26.4399C24.2056 26.4399 23.8156 26.8399 23.8156 27.2399V52.9199C23.8156 53.3999 24.2056 53.7199 24.5956 53.7199C24.9856 53.7199 25.3756 53.3199 25.3756 52.9199V38.6799L26.6236 38.0399C28.1836 37.2399 29.1976 35.5599 29.1976 33.7199V26.2799Z" fill="#CF182E"/>
<path d="M15.9383 19.5599H14.9243C11.2583 19.5599 8.29433 22.5999 8.29433 26.2799V34.4399H6.26633C5.79833 34.4399 5.48633 34.8399 5.48633 35.2399V43.1599C5.48633 43.6399 5.87633 43.9599 6.26633 43.9599H12.1943V52.9199C12.1943 53.3999 12.5843 53.7199 12.9743 53.7199C13.3643 53.7199 13.7543 53.3199 13.7543 52.9199V43.9599H14.8463C15.3143 43.9599 15.6263 43.5599 15.6263 43.1599V35.2399C15.6263 34.7599 15.2363 34.4399 14.8463 34.4399H13.7543V27.1599C13.7543 26.6799 13.3643 26.3599 12.9743 26.3599C12.5843 26.3599 12.1943 26.7599 12.1943 27.1599V34.4399H9.93233V26.2799C9.93233 23.4799 12.1943 21.2399 14.9243 21.2399H15.9383C16.4063 21.2399 16.7183 20.8399 16.7183 20.4399C16.7183 20.0399 16.3283 19.5599 15.9383 19.5599ZM14.0663 42.2799H7.04633V36.0399H14.0663V42.2799Z" fill="#CF182E"/>
</svg>
